# File created by Blade
# Date/Time:  Tue Sep 30 19:29:27 2014
#---------------------------------------------------------
:version 1.10
:name HOM
:units
  mass 1.0
  length 1.000000
  angle deg
:documentation
     Acclaim Skeleton File
:root
   axis xyz
   order TX TY TZ RX RY RZ
   position 0.000000 0.000000 0.000000
   orientation 0 0 0
:bonedata
   begin
      id 1
      name RightUpLeg_dum
      direction -1.000000 0.000000 0.000000
      length 3.766986
      axis 0.0 0.0 0.0 xyz
   end
   begin
      id 2
      name LeftUpLeg_dum
      direction 1.000000 0.000000 0.000000
      length 3.766986
      axis 0.0 0.0 0.0 xyz
   end
   begin
      id 3
      name Spine_dum
      direction 0.000000 1.000000 0.000000
      length 7.779697
      axis 0.0 0.0 0.0 xyz
   end
   begin
      id 4
      name RightUpLeg
      direction 0.000000 -1.000000 0.000000
      length 18.017682
      axis 0.0 0.0 0.0 xyz
      dof rx ry rz
   end
   begin
      id 5
      name RightLeg
      direction 0.000000 -1.000000 0.000000
      length 16.881075
      axis 0.0 0.0 0.0 xyz
      dof rx ry rz
   end
   begin
      id 6
      name RightFoot
      direction 0.000000 -0.258819 0.965926
      length 5.770812
      axis 15.0 0.0 0.0 xyz
      dof rx ry rz
   end
   begin
      id 7
      name RightToeBase
      direction 0.000000 0.000000 1.000000
      length 2.952750
      axis 0.0 0.0 0.0 xyz
      dof rx ry rz
   end
   begin
      id 8
      name LeftUpLeg
      direction 0.000000 -1.000000 0.000000
      length 18.017682
      axis 0.0 0.0 0.0 xyz
      dof rx ry rz
   end
   begin
      id 9
      name LeftLeg
      direction 0.000000 -1.000000 0.000000
      length 16.881075
      axis 0.0 0.0 0.0 xyz
      dof rx ry rz
   end
   begin
      id 10
      name LeftFoot
      direction 0.000000 -0.258819 0.965926
      length 5.770812
      axis 15.0 0.0 0.0 xyz
      dof rx ry rz
   end
   begin
      id 11
      name LeftToeBase
      direction 0.000000 0.000000 1.000000
      length 2.952750
      axis 0.0 0.0 0.0 xyz
      dof rx ry rz
   end
   begin
      id 12
      name Spine
      direction 0.000000 1.000000 0.000000
      length 0.000000
      axis 0.0 0.0 0.0 xyz
      dof rx ry rz
   end
   begin
      id 13
      name Spine_dum1
      direction 0.000000 1.000000 0.000000
      length 10.941760
      axis 0.0 0.0 0.0 xyz
   end
   begin
      id 14
      name Spine_dum2
      direction 0.000000 1.000000 0.000000
      length 10.941760
      axis 0.0 0.0 0.0 xyz
   end
   begin
      id 15
      name Spine_dum3
      direction 0.000000 1.000000 0.000000
      length 16.646042
      axis 0.0 0.0 0.0 xyz
   end
   begin
      id 16
      name RightShoulder
      direction -1.000000 0.000000 0.000000
      length 7.708937
      axis 0.0 0.0 90.0 xyz
      dof rx ry rz
   end
   begin
      id 17
      name RightArm
      direction -1.000000 0.000000 0.000000
      length 11.521345
      axis 0.0 0.0 90.0 xyz
      dof rx ry rz
   end
   begin
      id 18
      name RightForeArm
      direction -1.000000 0.000000 0.000000
      length 10.175898
      axis 0.0 0.0 90.0 xyz
      dof ry rz rx
   end
   begin
      id 19
      name RightHand
      direction -1.000000 0.000000 0.000000
      length 0.000000
      axis 0.0 0.0 90.0 xyz
      dof rx ry rz
   end
   begin
      id 20
      name RightHand_dum1
      direction -1.000000 0.000000 0.000000
      length 3.937000
      axis 0.0 0.0 90.0 xyz
   end
   begin
      id 21
      name RightHand_dum2
      direction 0.000000 0.000000 0.000000
      length 0.000000
      axis 0.0 0.0 90.0 xyz
   end
   begin
      id 22
      name RightHandThumb1
      direction 0.000000 0.000000 1.000000
      length 3.937000
      axis 0.0 0.0 90.0 xyz
      dof rx rz ry
   end
   begin
      id 23
      name LeftShoulder
      direction 1.000000 0.000000 0.000000
      length 7.708937
      axis 0.0 0.0 -90.0 xyz
      dof rx ry rz
   end
   begin
      id 24
      name LeftArm
      direction 1.000000 0.000000 0.000000
      length 11.521345
      axis 0.0 0.0 -90.0 xyz
      dof rx ry rz
   end
   begin
      id 25
      name LeftForeArm
      direction 1.000000 0.000000 0.000000
      length 10.175898
      axis 0.0 0.0 -90.0 xyz
      dof ry rz rx
   end
   begin
      id 26
      name LeftHand
      direction 1.000000 0.000000 0.000000
      length 0.000000
      axis 0.0 0.0 -90.0 xyz
      dof rx ry rz
   end
   begin
      id 27
      name LeftHand_dum1
      direction 1.000000 0.000000 0.000000
      length 3.937000
      axis 0.0 0.0 -90.0 xyz
   end
   begin
      id 28
      name LeftHand_dum2
      direction 0.000000 0.000000 0.000000
      length 0.000000
      axis 0.0 0.0 -90.0 xyz
   end
   begin
      id 29
      name LeftHandThumb1
      direction 0.000000 0.000000 1.000000
      length 3.937000
      axis 0.0 0.0 -90.0 xyz
      dof rx rz ry
   end
   begin
      id 30
      name Head
      direction 0.000000 1.000000 0.000000
      length 4.527550
      axis 0.0 0.0 0.0 xyz
      dof rx ry rz
   end
:hierarchy
   begin
      root RightUpLeg_dum LeftUpLeg_dum Spine_dum
      RightUpLeg_dum RightUpLeg
      LeftUpLeg_dum LeftUpLeg
      Spine_dum Spine
      RightUpLeg RightLeg
      RightLeg RightFoot
      RightFoot RightToeBase
      LeftUpLeg LeftLeg
      LeftLeg LeftFoot
      LeftFoot LeftToeBase
      Spine Spine_dum1 Spine_dum2 Spine_dum3
      Spine_dum1 RightShoulder
      Spine_dum2 LeftShoulder
      Spine_dum3 Head
      RightShoulder RightArm
      RightArm RightForeArm
      RightForeArm RightHand
      RightHand RightHand_dum1 RightHand_dum2
      RightHand_dum2 RightHandThumb1
      LeftShoulder LeftArm
      LeftArm LeftForeArm
      LeftForeArm LeftHand
      LeftHand LeftHand_dum1 LeftHand_dum2
      LeftHand_dum2 LeftHandThumb1
   end

# File created by Blade
# Date/Time:  Mon Sep 22 17:23:16 2014
# Frame Rate: 120.000 fps
#------------------------------------------------------
:FULLY-SPECIFIED
:DEGREES
136
root 1.101391 37.553699 -0.791944 -16.418821 0.355270 -3.484379
RightUpLeg -57.494850 -7.782126 3.307594
RightLeg 93.147618 -0.000000 -0.000000
RightFoot -15.344489 -19.187343 14.673366
RightToeBase -0.265837 -0.000000 0.000000
LeftUpLeg 13.864556 -4.617337 -4.164173
LeftLeg 11.798320 -0.000000 -0.000000
LeftFoot -13.751505 9.926586 -17.854984
LeftToeBase 10.890102 -0.000000 -0.000000
Spine 28.546301 -13.334578 -7.007272
RightShoulder -2.044689 -27.509529 -7.165177
RightArm 21.905200 -20.890783 58.445323
RightForeArm -173.719971 -0.000000 57.659000
RightHand 100.514351 0.000000 -175.007874
RightHandThumb1 -24.326973 -0.000000 -32.862282
LeftShoulder -15.893002 27.312130 10.024243
LeftArm 66.748328 -21.835169 -65.110519
LeftForeArm 51.699516 -0.000000 60.703444
LeftHand -26.577637 -0.000000 39.702694
LeftHandThumb1 -26.253704 0.000000 33.147579
Head -3.496610 16.205859 4.539886
137
root 1.109847 37.568321 -0.769841 -16.689420 0.556462 -3.509823
RightUpLeg -58.490948 -8.014727 3.454796
RightLeg 93.938514 -0.000000 -0.000000
RightFoot -15.261184 -19.067002 14.472537
RightToeBase -0.411559 -0.000000 0.000000
LeftUpLeg 14.240385 -4.607610 -4.152210
LeftLeg 11.626798 -0.000000 -0.000000
LeftFoot -13.751169 9.709630 -18.205636
LeftToeBase 11.527042 -0.000000 -0.000000
Spine 28.872978 -13.351290 -7.244087
RightShoulder -2.009477 -27.575699 -7.125397
RightArm 21.800441 -20.916795 58.518722
RightForeArm -173.673413 -0.000000 57.681881
RightHand 100.565954 -0.000000 -174.954466
RightHandThumb1 -24.326973 -0.000000 -32.862282
LeftShoulder -15.878189 27.240496 10.241735
LeftArm 66.997023 -21.505076 -64.978379
LeftForeArm 51.416090 -0.000000 60.052844
LeftHand -27.163981 -0.000000 42.043521
LeftHandThumb1 -26.253704 0.000000 33.147579
Head -3.333692 15.907581 4.628106
138
root 1.116117 37.578623 -0.751772 -16.916630 0.757782 -3.577089
RightUpLeg -59.508393 -8.278349 3.643655
RightLeg 94.711056 -0.000000 -0.000000
RightFoot -15.255634 -18.810276 14.472463
RightToeBase -0.451253 -0.000000 0.000000
LeftUpLeg 14.559712 -4.612204 -4.105214
LeftLeg 11.470188 -0.000000 -0.000000
LeftFoot -13.670324 9.566536 -18.263900
LeftToeBase 11.726195 -0.000000 -0.000000
Spine 29.151953 -13.417189 -7.410684
RightShoulder -1.952813 -27.653302 -7.136872
RightArm 21.714654 -20.896522 58.633584
RightForeArm -173.576420 -0.000000 57.695474
RightHand 100.542499 -0.000000 -175.008805
RightHandThumb1 -24.326973 -0.000000 -32.862282
LeftShoulder -15.808439 27.110741 10.477937
LeftArm 67.154104 -21.258529 -65.034739
LeftForeArm 51.509945 -0.000000 59.606069
LeftHand -27.622664 0.000000 43.411959
LeftHandThumb1 -26.253704 0.000000 33.147579
Head -3.185016 15.785076 4.710655
139
root 1.125920 37.589113 -0.733004 -17.140737 0.967404 -3.633853
RightUpLeg -60.495026 -8.532359 3.819072
RightLeg 95.424285 -0.000000 -0.000000
RightFoot -15.125069 -18.626727 14.198164
RightToeBase -0.721409 -0.000000 0.000000
LeftUpLeg 14.851196 -4.673096 -4.086266
LeftLeg 11.378572 -0.000000 -0.000000
LeftFoot -13.647429 9.410334 -18.372565
LeftToeBase 11.818153 -0.000000 -0.000000
Spine 29.419005 -13.504113 -7.577181
RightShoulder -1.863597 -27.679667 -7.172714
RightArm 21.605257 -20.951958 58.699432
RightForeArm -173.613073 -0.000000 57.695028
RightHand 100.596911 -0.000000 -174.891056
RightHandThumb1 -24.326973 -0.000000 -32.862282
LeftShoulder -15.677824 26.970120 10.692601
LeftArm 67.272329 -21.146566 -65.252433
LeftForeArm 51.764704 -0.000000 59.371272
LeftHand -27.865696 -0.000000 43.061346
LeftHandThumb1 -26.253704 0.000000 33.147579
Head -3.022418 15.807509 4.801333
140
root 1.135697 37.597258 -0.713328 -17.352497 1.190510 -3.667654
RightUpLeg -61.473776 -8.768452 3.946595
RightLeg 96.102692 -0.000000 -0.000000
RightFoot -15.034889 -18.424497 14.140508
RightToeBase -0.846891 -0.000000 0.000000
LeftUpLeg 15.121345 -4.767988 -4.105696
LeftLeg 11.301111 -0.000000 -0.000000
LeftFoot -13.569623 9.293410 -18.415668
LeftToeBase 11.806359 -0.000000 -0.000000
Spine 29.661145 -13.608822 -7.802523
RightShoulder -1.747370 -27.751977 -7.193469
RightArm 21.550151 -21.024612 58.712916
RightForeArm -173.498767 0.000000 57.669439
RightHand 100.606240 -0.000000 -175.025056
RightHandThumb1 -24.326973 -0.000000 -32.862282
LeftShoulder -15.568979 26.999110 10.941067
LeftArm 67.534504 -21.107806 -65.695654
LeftForeArm 51.803605 -0.000000 59.247061
LeftHand -27.734903 -0.000000 42.351582
LeftHandThumb1 -26.253704 0.000000 33.147579
Head -2.844132 15.611157 4.842011
141
root 1.144669 37.604219 -0.696970 -17.533771 1.409746 -3.726491
RightUpLeg -62.446467 -9.017082 4.130922
RightLeg 96.700943 -0.000000 -0.000000
RightFoot -14.972011 -18.369359 13.937562
RightToeBase -0.982820 -0.000000 0.000000
LeftUpLeg 15.344077 -4.890425 -4.106321
LeftLeg 11.250541 -0.000000 -0.000000
LeftFoot -13.473131 9.192583 -18.372118
LeftToeBase 11.710316 -0.000000 -0.000000
Spine 29.875323 -13.730187 -7.963929
RightShoulder -1.683004 -27.782025 -7.232388
RightArm 21.533085 -21.154374 58.708216
RightForeArm -173.395418 0.000000 57.601237
RightHand 100.639103 -0.000000 -174.945696
RightHandThumb1 -24.326973 -0.000000 -32.862282
LeftShoulder -15.486417 27.118001 11.108487
LeftArm 67.914676 -21.093191 -66.111081
LeftForeArm 52.041474 -0.000000 59.180195
LeftHand -27.734439 -0.000000 42.010178
LeftHandThumb1 -26.253704 0.000000 33.147579
Head -2.706006 15.668743 4.888187
